<svg xmlns="http://www.w3.org/2000/svg" viewBox="0 0 400 400" role="img" aria-label="vibrant hollow cloud app icon">
  <defs>
    <linearGradient id="blue-cyan-purple" x1="0%" y1="0%" x2="100%" y2="100%">
      <stop offset="0%" stop-color="#EEF2FE" />
      <stop offset="50%" stop-color="#00A2FF" />
      <stop offset="100%" stop-color="#BB2BE2" />
    </linearGradient>
    <mask id="mask-color-hollow">
      <rect width="400" height="400" fill="white" />
      <g fill="black" transform="translate(0, -20)">
        <path d="M 120 135 Q 200 92 280 135 Q 200 132 120 135 Z" />
        <path d="M 60 180 Q 200 102 340 180 Q 200 173 60 180 Z" />
        <polygon points="231.5,190 278.5,190 168.5,290 121.5,290" />
        <rect x="115" y="290" width="170" height="25" />
      </g>
    </mask>
  </defs>
  <rect width="400" height="400" fill="#FFFFFF" />
  <path
    d="M 350 200
       A 90 90 0 0 1 275 330
       A 90 90 0 0 1 125 330
       A 90 90 0 0 1 50 200
       A 90 90 0 0 1 125 70
       A 90 90 0 0 1 275 70
       A 90 90 0 0 1 350 200 Z"
    fill="url(#blue-cyan-purple)"
    mask="url(#mask-color-hollow)"
  />
</svg>
