<svg viewBox="0 0 48 48" fill="none" xmlns="http://www.w3.org/2000/svg">
  <defs>
    <linearGradient id="g-kbase-agent" x1="7" y1="6" x2="41" y2="42" gradientUnits="userSpaceOnUse">
      <stop offset="0" stop-color="#38BDF8"/>
      <stop offset="0.48" stop-color="#2563EB"/>
      <stop offset="1" stop-color="#4F46E5"/>
    </linearGradient>
  </defs>
  <rect x="6" y="10" width="36" height="28" rx="5.5" stroke="url(#g-kbase-agent)" stroke-width="3"/>
  <rect x="2.5" y="20.5" width="4.5" height="11" rx="2.25" fill="url(#g-kbase-agent)" opacity="0.56"/>
  <rect x="41" y="20.5" width="4.5" height="11" rx="2.25" fill="url(#g-kbase-agent)" opacity="0.56"/>
  <path d="M12.4 18.4C17.2 16.9 21.2 18.1 23.7 21.4V34.6C20.8 31.8 16.9 31.1 12.4 32.8V18.4Z" stroke="#60A5FA" stroke-width="2.5" stroke-linecap="round" stroke-linejoin="round"/>
  <path d="M35.6 18.4C30.8 16.9 26.8 18.1 24.3 21.4V34.6C27.2 31.8 31.1 31.1 35.6 32.8V18.4Z" stroke="#60A5FA" stroke-width="2.5" stroke-linecap="round" stroke-linejoin="round"/>
  <path d="M24 21.6V34.6" stroke="#60A5FA" stroke-width="2.3" stroke-linecap="round"/>
  <path d="M15.6 23.4C17.6 22.8 19.9 23.2 21.4 24.5" stroke="#93C5FD" stroke-width="1.7" stroke-linecap="round"/>
  <path d="M15.6 27C17.6 26.4 19.9 26.8 21.4 28.1" stroke="#93C5FD" stroke-width="1.7" stroke-linecap="round"/>
  <path d="M26.6 24.5C28.1 23.2 30.4 22.8 32.4 23.4" stroke="#93C5FD" stroke-width="1.7" stroke-linecap="round"/>
  <path d="M26.6 28.1C28.1 26.8 30.4 26.4 32.4 27" stroke="#93C5FD" stroke-width="1.7" stroke-linecap="round"/>
</svg>
